<?xml version="1.0" encoding="UTF-8"?><svg id="Calque_1" xmlns="http://www.w3.org/2000/svg" viewBox="0 0 24 24"><defs><style>.cls-1{fill:#fff;}.cls-2{fill:#5e8e3e;}.cls-3{fill:#95bf46;}</style></defs><path class="cls-3" d="M21.01,4.67c-.02-.12-.14-.19-.24-.19-.1,0-2.2-.14-2.2-.14,0,0-1.46-1.27-1.62-1.41-.16-.14-.47-.1-.59-.07-.02,0-.32,.09-.81,.22-.49-1.23-1.34-2.36-2.85-2.36-.04,0-.08,0-.13,0-.43-.5-.96-.72-1.42-.72-3.52,0-5.2,3.87-5.73,5.84-1.37,.37-2.34,.64-2.46,.67-.76,.21-.79,.23-.89,.86-.08,.48-2.07,14.06-2.07,14.06l15.56,2.56,8.43-1.6s-2.96-17.6-2.98-17.72h0Zm-6.32-1.36l-1.32,.36c0-.08,0-.16,0-.25,0-.77-.12-1.38-.31-1.87,.78,.09,1.3,.86,1.63,1.76Zm-2.6-1.61c.22,.48,.36,1.16,.36,2.09,0,.05,0,.09,0,.13-.86,.23-1.79,.49-2.72,.74,.52-1.78,1.5-2.64,2.36-2.96Zm-1.05-.87c.15,0,.3,.05,.45,.13-1.13,.47-2.34,1.64-2.85,3.99l-2.15,.59c.6-1.79,2.02-4.71,4.54-4.71h0Z"/><path class="cls-2" d="M20.78,4.48c-.1,0-2.2-.14-2.2-.14,0,0-1.46-1.27-1.62-1.41-.06-.05-.14-.08-.23-.09l-1.18,21.17,8.44-1.6s-2.96-17.6-2.98-17.72c-.02-.12-.14-.19-.24-.19"/><path class="cls-1" d="M12.7,8.58l-1.04,2.72s-.91-.43-2.03-.43c-1.64,0-1.72,.9-1.72,1.13,0,1.24,3.69,1.72,3.69,4.63,0,2.29-1.65,3.76-3.88,3.76-2.67,0-4.04-1.46-4.04-1.46l.72-2.08s1.41,1.06,2.59,1.06c.77,0,1.09-.54,1.09-.93,0-1.62-3.02-1.69-3.02-4.36,0-2.24,1.83-4.41,5.53-4.41,1.42,0,2.13,.36,2.13,.36"/></svg>